<?xml version="1.0" standalone="no"?>
<!DOCTYPE svg PUBLIC "-//W3C//DTD SVG 20010904//EN"
 "http://www.w3.org/TR/2001/REC-SVG-20010904/DTD/svg10.dtd">
<svg version="1.0" xmlns="http://www.w3.org/2000/svg"
 width="512.000000pt" height="512.000000pt" viewBox="0 0 512.000000 512.000000"
 preserveAspectRatio="xMidYMid meet">
<metadata>
Created by potrace 1.11, written by Peter Selinger 2001-2013
</metadata>
<g transform="translate(0.000000,512.000000) scale(0.100000,-0.100000)"
fill="#000000" stroke="none">
<path d="M2253 5025 c-770 -98 -1423 -496 -1844 -1125 -86 -128 -212 -378
-262 -520 -114 -323 -164 -686 -138 -995 52 -593 284 -1109 688 -1526 l92 -95
-55 -67 c-30 -37 -53 -71 -50 -76 8 -12 638 -422 651 -423 8 0 67 96 78 126 2
5 64 -16 138 -47 289 -119 538 -177 859 -197 452 -29 914 67 1325 274 268 136
481 292 685 502 372 384 600 850 676 1379 21 147 24 477 5 615 -31 230 -93
461 -176 654 -23 56 -57 144 -74 196 -43 130 -157 356 -235 465 -178 247 -401
428 -711 576 -135 64 -291 119 -409 143 -43 9 -129 32 -190 50 -116 35 -217
58 -370 83 -132 21 -540 26 -683 8z m77 -353 c-66 -45 -217 -162 -235 -182
-20 -22 -19 -22 30 2 216 108 492 178 704 178 262 0 715 -159 916 -322 278
-226 456 -537 511 -893 32 -205 3 -485 -69 -675 -57 -152 -209 -408 -231 -391
-178 134 -926 726 -926 733 0 4 75 96 166 204 91 107 164 198 161 200 -5 5
-803 53 -889 54 -35 0 -42 -7 -180 -170 -78 -93 -148 -170 -153 -170 -6 0
-228 218 -495 485 l-485 486 25 20 c81 65 255 171 385 234 219 107 438 176
667 209 123 18 128 18 98 -2z m-916 -1201 c460 -460 498 -501 485 -518 -7 -10
-32 -40 -53 -66 -39 -47 -39 -48 -20 -66 10 -10 138 -119 283 -241 l264 -223
34 36 c18 20 37 37 41 37 4 0 140 -133 302 -295 232 -232 290 -296 277 -301
-37 -14 -370 4 -465 25 -209 46 -408 131 -608 258 -20 13 -43 -12 -480 -536
l-459 -550 -63 62 c-241 236 -450 603 -536 942 -43 173 -57 275 -63 460 -16
514 145 987 477 1394 36 44 70 80 75 81 6 0 235 -225 509 -499z m1698 -1058
c210 -192 395 -360 412 -374 l31 -27 -68 -33 -67 -34 -377 377 -376 376 24 31
c13 16 28 30 32 30 5 1 180 -155 389 -346z m1644 -110 c-4 -38 -16 -112 -27
-167 -20 -99 -76 -286 -85 -286 -7 0 -144 111 -144 117 0 3 29 45 64 92 64 85
170 257 182 293 12 38 16 15 10 -49z m-2508 -692 c196 -98 394 -166 619 -212
118 -24 450 -37 558 -21 l70 10 237 -236 c226 -225 237 -237 221 -255 -38 -41
-267 -183 -398 -247 -220 -107 -407 -165 -660 -207 -83 -13 -165 -18 -335 -18
-261 1 -396 18 -625 81 -112 31 -345 123 -345 136 0 17 542 1018 551 1018 5 0
53 -22 107 -49z m1933 -172 c79 -72 148 -135 153 -140 8 -7 -98 -149 -113
-149 -8 0 -341 333 -341 342 0 9 129 77 146 78 6 0 76 -59 155 -131z"/>
</g>
</svg>
